<svg width="52" height="60" viewBox="0 0 52 60" fill="none" xmlns="http://www.w3.org/2000/svg">
<path d="M51.9903 58.028L47.4239 14.6013C47.3281 13.6922 46.5608 13.0019 45.6454 13.0019H37.0627V11.0477C37.0627 4.95621 32.0999 0 26.0002 0C19.9001 0 14.9373 4.95621 14.9373 11.0477V13.0019H6.35458C5.4392 13.0019 4.67187 13.6922 4.57607 14.6013L0.00970843 58.028C-0.0430051 58.531 0.120636 59.0332 0.459378 59.4095C0.798578 59.7853 1.28171 60 1.78822 60H50.2113C50.7183 60 51.2014 59.7853 51.5401 59.4095C51.8798 59.0332 52.043 58.531 51.9903 58.028ZM18.5135 11.0477C18.5135 6.92551 21.8721 3.57147 26.0002 3.57147C30.1279 3.57147 33.4865 6.92551 33.4865 11.0477V13.0019H18.5135V11.0477ZM3.77391 56.4285L7.96486 16.5733H14.9373V20.5087C14.9373 21.4948 15.738 22.2945 16.7254 22.2945C17.7127 22.2945 18.5135 21.4948 18.5135 20.5087V16.5733H33.4865V20.5087C33.4865 21.4948 34.2872 22.2945 35.2746 22.2945C36.2619 22.2945 37.0627 21.4948 37.0627 20.5087V16.5733H44.0351L48.2261 56.4285H3.77391Z" fill="#3E3838"/>
</svg>
