<svg width="61" height="53" viewBox="0 0 61 53" fill="none" xmlns="http://www.w3.org/2000/svg">
<path d="M60.5715 18.9286H50.286L39.4803 0.918701C38.9442 0.0240697 37.7815 -0.268024 36.8831 0.269902C35.9866 0.807828 35.6964 1.97047 36.2343 2.86701L45.8713 18.9286H14.7004L24.3373 2.86688C24.8752 1.97034 24.585 0.8077 23.6885 0.269775C22.7882 -0.268151 21.6293 0.0239423 21.0914 0.918573L10.2856 18.9284H0V22.7142H4.10829L8.91713 48.3658C9.41988 51.0517 11.7675 53 14.4997 53H46.072C48.804 53 51.1516 51.0517 51.6526 48.3677L56.4631 22.7142H60.5716C60.5715 22.7142 60.5715 18.9286 60.5715 18.9286ZM47.9315 47.6708C47.7651 48.5655 46.9832 49.2144 46.0718 49.2144H14.4997C13.5883 49.2144 12.8065 48.5656 12.6383 47.669L7.95878 22.7142H52.6128L47.9315 47.6708Z" fill="#3E3838"/>
</svg>
