<svg width="521" height="784" viewBox="0 0 521 784" fill="none" xmlns="http://www.w3.org/2000/svg">
<path d="M352.73 39.2846C324.687 22.0763 293.08 18.0121 260.807 12.3993C209.558 3.48651 153.118 -2.60241 101.175 3.40458C66.0369 7.46819 29.4616 22.0622 12.3153 54.6052C2.21965 73.7664 -3.70941 95.3388 10.1408 114.405C26.5391 136.98 53.0405 152.365 77.1563 165.013C124.95 190.08 171.067 208.423 224.235 218.882C292.907 232.392 375.058 224.291 435.165 265.042C481.596 296.52 518.213 348.504 519.676 406.288C520.431 436.11 503.855 465.861 486.168 488.724C465.958 514.85 441.29 525.817 409.269 530.336C364.125 536.708 318.467 536.932 273.656 546.151C212.758 558.681 152.837 579.967 103.844 619.295C76.8736 640.945 43.8191 674.05 45.5265 711.614C46.7949 739.519 69.0031 764.348 87.6336 782.979" stroke="#7E696C" stroke-width="2" stroke-linecap="round" stroke-linejoin="round"/>
</svg>
