<svg width="66" height="66" viewBox="0 0 66 66" fill="none" xmlns="http://www.w3.org/2000/svg">
<path d="M17.4023 0C13.1023 0 9.66797 3.61015 9.66797 7.86328C9.66797 12.128 13.1376 15.5977 17.4023 15.5977C21.6671 15.5977 25.1367 12.128 25.1367 7.86328C25.1367 3.6068 21.698 0 17.4023 0ZM17.4023 11.7305C15.27 11.7305 13.5352 9.99565 13.5352 7.86328C13.5352 5.69714 15.3061 3.86719 17.4023 3.86719C19.4986 3.86719 21.2695 5.69714 21.2695 7.86328C21.2695 9.99565 19.5347 11.7305 17.4023 11.7305Z" fill="#3E3838"/>
<path d="M60.1992 0H32.8711C29.6725 0 27.0703 2.60223 27.0703 5.80078V18.9963L25.3709 17.297C24.2752 16.2012 22.8186 15.5977 21.2695 15.5977H17.4023C16.5826 15.5977 10.4877 15.5977 9.66797 15.5977C4.33705 15.5977 0 19.9347 0 25.2656C0 26.3651 0 35.2791 0 36.8672C0 40.0657 2.60223 42.668 5.80078 42.668C6.47844 42.668 7.12942 42.5512 7.73438 42.3367V60.1992C7.73438 63.3978 10.3366 66 13.5352 66C15.0195 66 16.3753 65.4396 17.4023 64.5194C18.4293 65.4396 19.7852 66 21.2695 66C24.4681 66 27.0703 63.3978 27.0703 60.1992V34.6041C28.5487 35.1255 30.1865 35.0251 31.5983 34.3217L38.1087 31.0664H60.1992C63.3978 31.0664 66 28.4642 66 25.2656V5.80078C66 2.60223 63.3978 0 60.1992 0ZM37.6031 26.9954L29.8711 30.8614C29.1457 31.2229 28.2448 31.1077 27.6367 30.4997L26.5042 29.367C25.3084 28.1713 23.2084 28.9846 23.2033 30.7283C23.2033 30.7302 23.203 30.732 23.203 30.734V60.1992C23.203 61.2654 22.3356 62.1328 21.2694 62.1328C20.2032 62.1328 19.3358 61.2654 19.3358 60.1992V40.7344C19.3358 39.6665 18.4701 38.8008 17.4022 38.8008C16.3344 38.8008 15.4686 39.6665 15.4686 40.7344V60.1992C15.4686 61.2654 14.6012 62.1328 13.535 62.1328C12.4688 62.1328 11.6014 61.2654 11.6014 60.1992V36.8672C11.6014 35.4093 11.6014 26.4572 11.6014 25.2656C11.6014 24.1978 10.7357 23.332 9.66784 23.332C8.59998 23.332 7.73425 24.1978 7.73425 25.2656C7.73425 26.3651 7.73425 35.2791 7.73425 36.8672C7.73425 37.9334 6.86684 38.8008 5.80065 38.8008C4.73447 38.8008 3.86706 37.9334 3.86706 36.8672C3.86719 35.4093 3.86719 26.4572 3.86719 25.2656C3.86719 22.0671 6.46942 19.4648 9.66797 19.4648C11.1259 19.4648 20.0779 19.4648 21.2695 19.4648C21.7857 19.4648 22.2711 19.6661 22.6365 20.0315L28.3995 25.7945C28.9878 26.383 29.887 26.5288 30.6313 26.1568L35.8738 23.5354C36.8334 23.0553 37.9898 23.4434 38.4679 24.4007C38.9462 25.3573 38.5597 26.5172 37.6031 26.9954ZM62.1328 25.2656C62.1328 26.3318 61.2654 27.1992 60.1992 27.1992H42.2064C42.2181 27.1661 42.231 27.1336 42.2421 27.1002C42.5205 26.2649 42.604 25.3963 42.4976 24.5479L53.0717 19.2608C54.0269 18.7832 54.414 17.6217 53.9364 16.6665C53.4588 15.7114 52.2973 15.3241 51.3422 15.8018L40.7687 21.0887C39.0746 19.45 36.4357 18.9299 34.1438 20.0769L30.9375 21.6801V5.80078C30.9375 4.7346 31.8049 3.86719 32.8711 3.86719H60.1992C61.2654 3.86719 62.1328 4.7346 62.1328 5.80078V25.2656Z" fill="#3E3838"/>
</svg>
