<svg width="52" height="53" viewBox="0 0 52 53" fill="none" xmlns="http://www.w3.org/2000/svg">
<path d="M49.5883 25.7275C49.1896 21.7419 45.8685 18.7363 41.8631 18.7363H39.7202V13.9746C39.7202 6.26901 33.4512 0 25.7456 0C18.04 0 11.771 6.26901 11.771 13.9746V18.7363H9.62814C5.6226 18.7363 2.30151 21.7419 1.90297 25.7283C-0.0863912 45.7323 0.000561946 44.7138 0.000561946 45.2363C0.000561946 49.5084 3.46999 53 7.76486 53H43.7264C48.0192 53 51.4907 49.5106 51.4907 45.2363C51.4907 44.6731 51.5886 45.8423 49.5883 25.7275ZM14.8765 13.9746C14.8765 7.98137 19.7524 3.10547 25.7456 3.10547C31.7389 3.10547 36.6148 7.98137 36.6148 13.9746V18.7363H33.5093V13.9746C33.5093 9.69372 30.0265 6.21094 25.7456 6.21094C21.4647 6.21094 17.982 9.69372 17.982 13.9746V18.7363H14.8765V13.9746V13.9746ZM30.4038 13.9746V18.7363H21.0874V13.9746C21.0874 11.4061 23.1771 9.31641 25.7456 9.31641C28.3142 9.31641 30.4038 11.4061 30.4038 13.9746ZM39.6334 21.8314C39.0363 27.1724 35.3786 31.7844 30.4037 33.567V32.8145C30.4038 31.9569 29.7086 31.2617 28.8511 31.2617H22.6402C21.7826 31.2617 21.0874 31.9569 21.0874 32.8145V33.567C16.1127 31.7844 12.4548 27.1723 11.8578 21.8314C14.9763 21.8314 36.4769 21.8314 39.6334 21.8314ZM27.2984 34.3672V35.5994C27.2984 35.6034 27.2984 35.6073 27.2984 35.6113V37.4727H24.1929V35.6113C24.1929 35.6074 24.1929 35.6035 24.1929 35.5994V34.3672H27.2984ZM43.7264 49.8945H7.76486C5.66773 49.8945 3.98861 48.5291 3.36937 46.7787H48.1219C47.5032 48.5272 45.8256 49.8945 43.7264 49.8945ZM3.23812 43.6836L4.99302 26.0365C5.20212 23.9458 6.75154 22.3046 8.7438 21.925C9.07785 25.3987 10.4773 28.735 12.7432 31.4168C14.9411 34.018 17.8685 35.9077 21.0874 36.8267V39.0254C21.0874 39.8829 21.7826 40.5781 22.6402 40.5781H28.8511C29.7086 40.5781 30.4038 39.8829 30.4038 39.0254V36.8267C33.6228 35.9077 36.5502 34.018 38.748 31.4168C41.0139 28.735 42.4133 25.3988 42.7473 21.925C44.7396 22.3046 46.289 23.9458 46.498 26.0356L48.2531 43.6836H3.23812Z" fill="#3E3838"/>
</svg>
